<svg xmlns="http://www.w3.org/2000/svg" width="156.51" height="156.51" viewBox="0 0 156.51 156.51">
  <g id="レイヤー_2" data-name="レイヤー 2">
    <g id="Calque_1" data-name="Calque 1">
      <g>
        <path d="M114.17,95c-1.93-1.06-11.4-6.17-13.17-6.89s-3.07-1.1-4.46.82-5.31,6.19-6.49,7.45-2.35,1.39-4.29.33A53.55,53.55,0,0,1,70.35,86.33a59.06,59.06,0,0,1-10.41-14c-1.09-2,0-3,1-4S63,66.13,64,65a13.84,13.84,0,0,0,2.08-3.2,3.62,3.62,0,0,0,0-3.44c-.46-1-4-10.82-5.5-14.8s-3.15-3.4-4.3-3.44-2.45-.26-3.76-.31a7.22,7.22,0,0,0-5.32,2.26A22,22,0,0,0,39.7,58.22C39.34,67.88,46,77.47,47,78.81s12.76,22.29,32.41,30.9,19.78,6,23.38,5.79,11.8-4.32,13.6-8.84,2-8.45,1.49-9.28S116.09,96,114.17,95Z" style="fill: #03400f;fill-rule: evenodd"/>
        <path d="M78.25,156.51a78.26,78.26,0,1,1,78.26-78.26A78.35,78.35,0,0,1,78.25,156.51ZM78.25,5a73.26,73.26,0,1,0,73.26,73.25A73.33,73.33,0,0,0,78.25,5Z" style="fill: #03400f"/>
      </g>
    </g>
  </g>
</svg>
