<svg xmlns="http://www.w3.org/2000/svg" width="156.51" height="156.51" viewBox="0 0 156.51 156.51">
  <g id="レイヤー_2" data-name="レイヤー 2">
    <g id="レイヤー_1-2" data-name="レイヤー 1">
      <g>
        <path d="M100,86.74l2.37-18.4H84.19V56.59c0-5.33,1.49-9,9.12-9h9.74V31.16a131.6,131.6,0,0,0-14.19-.72C74.8,30.44,65.19,39,65.19,54.76V68.34H49.29v18.4h15.9v41.09h19V86.74Z" style="fill: #221f20"/>
        <path d="M78.25,156.51a78.26,78.26,0,1,1,78.26-78.26A78.34,78.34,0,0,1,78.25,156.51ZM78.25,5a73.26,73.26,0,1,0,73.26,73.26A73.33,73.33,0,0,0,78.25,5Z" style="fill: #221f20"/>
      </g>
    </g>
  </g>
</svg>
