<svg xmlns="http://www.w3.org/2000/svg" width="156.51" height="156.51" viewBox="0 0 156.51 156.51">
  <g id="レイヤー_2" data-name="レイヤー 2">
    <g id="レイヤー_1-2" data-name="レイヤー 1">
      <g>
        <g>
          <path d="M98.19,31.05H59.4A26.48,26.48,0,0,0,32.92,57.54V96.32A26.48,26.48,0,0,0,59.4,122.81H98.19a26.49,26.49,0,0,0,26.49-26.49V57.54A26.49,26.49,0,0,0,98.19,31.05m18,66a17.58,17.58,0,0,1-17.58,17.58H59A17.58,17.58,0,0,1,41.37,97V57.31A17.58,17.58,0,0,1,59,39.73h39.7a17.58,17.58,0,0,1,17.58,17.58Z" style="fill: #221f20"/>
          <path d="M78.8,53.35a23.81,23.81,0,1,0,23.81,23.81A23.81,23.81,0,0,0,78.8,53.35m0,39.24A15.43,15.43,0,1,1,94.23,77.16,15.43,15.43,0,0,1,78.8,92.59" style="fill: #221f20"/>
          <path d="M103.4,46.9A5.55,5.55,0,1,0,109,52.44a5.55,5.55,0,0,0-5.55-5.54" style="fill: #221f20"/>
        </g>
        <path d="M78.26,156.51a78.26,78.26,0,1,1,78.25-78.25A78.34,78.34,0,0,1,78.26,156.51ZM78.26,5a73.26,73.26,0,0,0,0,146.51h0A73.26,73.26,0,0,0,78.26,5Z" style="fill: #221f20"/>
      </g>
    </g>
  </g>
</svg>
