<svg xmlns="http://www.w3.org/2000/svg" width="280.01" height="314.56" viewBox="0 0 280.01 314.56">
  <g id="レイヤー_2" data-name="レイヤー 2">
    <g id="レイヤー_1-2" data-name="レイヤー 1">
      <g>
        <path d="M9.89,222.51A125.22,125.22,0,0,0,65.15,254l0,.48.33-1.26-.22.43a124.77,124.77,0,0,1-55.1-31.42,53.44,53.44,0,0,0,16.37,6.61c7.85,1.74,17.57,1.73,26.43-2.13a42.88,42.88,0,0,0,12.76-8.61,57.94,57.94,0,0,0,8.51-10.46,73.68,73.68,0,0,0,4.94-9c1.13-2.42,1.78-4.08,2-4.58l-.41-.11c-.31,0-.78.11-1.37.22s-1.3.18-2.16.36l-1.37.31c-.48.08-1,.18-1.54.3l-3.63.87c-5.3,1.34-12.46,3.3-21.32,6.42-1.1.4-2.22.81-3.34,1.24L42.69,205c-2.19.84-4.42,1.78-6.56,2.67-4.24,1.75-8.41,3.67-12.05,5.39a152,152,0,0,0-14.71,7.82l-.92.92a58.85,58.85,0,0,0-6.61,15.53A55.86,55.86,0,0,0,0,251.59,54.37,54.37,0,0,0,.74,260c.25,1.46.54,3,.94,4.48s.88,3,1.43,4.57,1.17,3.09,1.86,4.61,1.48,3,2.3,4.41S9,281,9.88,282.36s1.92,2.72,2.94,4,2,2.64,3.15,3.85,2.22,2.4,3.35,3.55a81.63,81.63,0,0,0,7,6.27,78.18,78.18,0,0,0,6.87,5.07c1.11.74,2.18,1.44,3.22,2.1s2.06,1.2,3,1.74c1.92,1.07,3.63,2,5,2.68s2.59,1.18,3.37,1.52l1.2.32a51.83,51.83,0,0,0-.55-5.26c-.41-2.83-1.13-6.6-2.22-11.09s-2.61-9.46-4.52-14.93a177.07,177.07,0,0,0-7.09-17c-5-10.37-10.56-19.57-15-27-1.1-1.89-2.16-3.64-3.18-5.22s-1.87-3.14-2.72-4.46c-.43-.66-.82-1.28-1.19-1.86l-1-1.66C10.85,224,10.31,223.14,9.89,222.51Z" style="fill: #006837"/>
        <path d="M66.72,254.44c1.29.38,2.61.62,3.92.92s2.61.61,3.93.82c2.64.43,5.28.94,8,1.2a125.34,125.34,0,0,0,47.82-3.31l.23.43-.34-1.26,0,.49A124.86,124.86,0,0,1,82.56,257c-2.66-.26-5.29-.77-7.92-1.2-1.32-.22-2.62-.55-3.93-.82s-2.62-.54-3.9-.92a54.49,54.49,0,0,0,7-.27,55.11,55.11,0,0,0,10.49-2.25c7.67-2.42,16.09-7.3,21.86-15.06a39.39,39.39,0,0,0,4.1-6.8c.56-1.16,1.06-2.3,1.5-3.48s.83-2.38,1.17-3.55a52,52,0,0,0,1.53-6.87c.34-2.26.55-4.42.65-6.45a74.43,74.43,0,0,0-.18-10.22c-.22-2.66-.49-4.43-.57-5l-.41.11a97.82,97.82,0,0,0-7.75,6.81c-4,3.82-9.25,9.1-15.37,16.25-1.53,1.85-3,3.59-4.51,5.48l-2.19,2.81L82,228.41c-1.4,1.84-2.77,3.71-4.06,5.52s-2.52,3.52-3.66,5.19a165.24,165.24,0,0,0-8.8,14.12l-.33,1.26a57.17,57.17,0,0,0,2.06,16.76,58,58,0,0,0,2.18,6.47,55.14,55.14,0,0,0,3.39,6.8c.68,1.16,1.42,2.33,2.22,3.5s1.69,2.28,2.63,3.42a51.45,51.45,0,0,0,6.58,6.64,56.49,56.49,0,0,0,8.09,5.73,64.16,64.16,0,0,0,9,4.43c1.53.63,3.08,1.21,4.63,1.76s3.11,1,4.66,1.39,3.1.81,4.63,1.16,3,.57,4.51.81a93.73,93.73,0,0,0,25.14.64l1.21-.32a52.71,52.71,0,0,0-3.1-4.28c-1.77-2.23-4.28-5.21-7.45-8.52-1.59-1.66-3.34-3.39-5.23-5.16s-3.95-3.68-6.13-5.53q-1.63-1.4-3.36-2.79c-1.16-.93-2.35-1.9-3.57-2.84-2.44-1.9-5-3.69-7.67-5.58C100,272.51,90.59,267.32,83,263.1c-3.82-2.05-7.18-3.94-10-5.36S68.06,255.19,66.72,254.44Z" style="fill: #006837"/>
        <path d="M131.92,253.65l1.94-.53,1.91-.62,3.82-1.24,3.76-1.42,1.88-.71,1.85-.8,3.69-1.6,3.6-1.78c2.43-1.13,4.72-2.54,7.08-3.81a129.78,129.78,0,0,0,25.38-19.61l.41.26-.92-.92.26.41a129.72,129.72,0,0,1-25.31,19.55c-2.35,1.27-4.63,2.68-7.06,3.8l-3.59,1.78L146.94,248l-1.84.8-1.88.71-3.75,1.41-3.81,1.24-1.91.61-1.93.53a52.16,52.16,0,0,0,13.88-10.89c5.44-5.93,10.27-14.37,11.36-24a38.33,38.33,0,0,0,.13-7.93,46,46,0,0,0-1.2-7.41,58.1,58.1,0,0,0-2.14-6.75,61.54,61.54,0,0,0-2.64-5.88A78.27,78.27,0,0,0,143,177.7l-.31.3a32.33,32.33,0,0,0-1.3,3.38c-.31.8-.63,1.75-.94,2.85s-.74,2.23-1.09,3.58c-1.5,5.27-3.36,12.47-5.07,21.7-.86,4.58-1.52,9.4-2.12,14s-1,9.08-1.33,13.14c-.16,2-.28,3.95-.37,5.73s-.17,3.36-.21,4.79c-.08,2.87-.05,5,0,6.1l.34,1.26a53.43,53.43,0,0,0,3.21,5.23c.83,1.2,1.81,2.53,3,3.94s2.47,2.85,4,4.34a53.91,53.91,0,0,0,11.45,8.71,52.59,52.59,0,0,0,16.71,6,62.4,62.4,0,0,0,9.9.9c1.66,0,3.33-.05,5-.16s3.36-.24,5-.5a83.61,83.61,0,0,0,18.55-4.84c2.78-1.11,5.44-2.22,7.82-3.4s4.51-2.38,6.41-3.47c3.76-2.22,6.42-4.17,7.81-5.16l.89-.86a88.08,88.08,0,0,0-15.53-5.82,152.39,152.39,0,0,0-15.16-3.56c-2.81-.5-5.81-1-8.84-1.41s-6.21-.73-9.45-1c-11.5-.83-22.23-.61-30.93-.47S135,253.51,131.92,253.65Z" style="fill: #006837"/>
        <path d="M188,220.35a125.25,125.25,0,0,0,31.51-55.25l.48,0-1.26-.34.43.23a124.83,124.83,0,0,1-31.42,55.1,53.67,53.67,0,0,0,6.61-16.37c1.74-7.86,1.73-17.58-2.13-26.44a43,43,0,0,0-8.61-12.76A58.37,58.37,0,0,0,173.11,156a73.68,73.68,0,0,0-9-4.94c-2.42-1.13-4.08-1.78-4.58-2l-.11.41c0,.31.11.77.22,1.36s.18,1.31.36,2.16c.09.43.2.89.31,1.38s.18,1,.3,1.54l.87,3.63c1.34,5.3,3.3,12.45,6.42,21.31.4,1.11.81,2.22,1.24,3.34l1.26,3.31c.84,2.19,1.78,4.42,2.67,6.55,1.75,4.24,3.67,8.42,5.39,12.06a151.36,151.36,0,0,0,7.82,14.7l.92.92a58.85,58.85,0,0,0,15.53,6.61A55.42,55.42,0,0,0,217,230.24a52,52,0,0,0,8.4-.74c1.46-.25,3-.53,4.48-.94s3-.88,4.57-1.43,3.09-1.17,4.61-1.86,3-1.47,4.41-2.29,2.91-1.68,4.3-2.61,2.72-1.93,4-2.94,2.64-2.05,3.85-3.16,2.4-2.22,3.55-3.35a91.84,91.84,0,0,0,11.34-13.83c.74-1.11,1.44-2.19,2.1-3.23s1.2-2.05,1.74-3c1.07-1.91,2-3.62,2.68-5s1.18-2.59,1.52-3.38l.32-1.2c-.55,0-2.43.14-5.26.55s-6.6,1.13-11.09,2.22-9.46,2.62-14.93,4.52a177.07,177.07,0,0,0-17,7.09c-10.37,5-19.57,10.57-27,15-1.89,1.1-3.64,2.17-5.22,3.18s-3.14,1.88-4.46,2.72l-1.86,1.2-1.66,1C189.42,219.39,188.59,219.93,188,220.35Z" style="fill: #006837"/>
        <path d="M219.89,163.52c.38-1.28.62-2.61.92-3.91s.6-2.61.82-3.94c.43-2.64.94-5.27,1.2-7.94a125.39,125.39,0,0,0-3.31-47.83l.43-.22-1.26.33.49,0a124.86,124.86,0,0,1,3.3,47.69c-.26,2.67-.77,5.29-1.2,7.93-.22,1.32-.55,2.61-.82,3.92s-.54,2.62-.92,3.9a54.29,54.29,0,0,0-.27-7A55.36,55.36,0,0,0,217,146c-2.42-7.67-7.3-16.08-15.06-21.85a38.77,38.77,0,0,0-6.8-4.1c-1.16-.56-2.3-1.06-3.48-1.51s-2.38-.83-3.55-1.17a55.41,55.41,0,0,0-6.87-1.53c-2.26-.34-4.42-.54-6.45-.65a74.43,74.43,0,0,0-10.22.18c-2.66.23-4.43.5-5,.58l.11.4a94.12,94.12,0,0,0,6.81,7.75c3.82,4,9.1,9.25,16.25,15.37,1.85,1.53,3.59,3,5.48,4.51l2.81,2.2,2.77,2.13c1.84,1.4,3.71,2.76,5.52,4.06s3.52,2.51,5.19,3.66a161.52,161.52,0,0,0,14.12,8.79l1.26.34a58.82,58.82,0,0,0,23.23-4.25,53.76,53.76,0,0,0,6.8-3.39c1.16-.67,2.33-1.41,3.5-2.22s2.28-1.68,3.42-2.63a50.72,50.72,0,0,0,6.64-6.57,57.15,57.15,0,0,0,5.73-8.1A63.5,63.5,0,0,0,273.7,129c.63-1.54,1.21-3.09,1.76-4.64s1-3.11,1.39-4.66.81-3.09,1.16-4.62.57-3,.81-4.51a93.8,93.8,0,0,0,.64-25.15l-.32-1.2a50.11,50.11,0,0,0-4.28,3.1c-2.23,1.76-5.21,4.28-8.52,7.45-1.66,1.58-3.39,3.33-5.16,5.22s-3.68,3.95-5.53,6.13q-1.4,1.64-2.79,3.37c-.93,1.15-1.9,2.34-2.84,3.56-1.9,2.44-3.69,5-5.58,7.68-6.48,9.52-11.67,18.91-15.89,26.52-2.05,3.81-3.94,7.18-5.36,10S220.64,162.18,219.89,163.52Z" style="fill: #006837"/>
        <path d="M219.1,98.33l-.53-1.94L218,94.48l-1.24-3.83-1.42-3.76L214.58,85l-.8-1.84-1.6-3.69-1.78-3.61c-1.13-2.43-2.54-4.72-3.81-7.07A130.15,130.15,0,0,0,187,43.41l.26-.41-.92.92.41-.26A129.79,129.79,0,0,1,206.28,69c1.27,2.35,2.68,4.63,3.8,7l1.78,3.6,1.59,3.68.8,1.83L215,87l1.41,3.75,1.24,3.81.61,1.91.53,1.93a52.48,52.48,0,0,0-10.89-13.88c-5.93-5.43-14.37-10.26-24-11.35a38.34,38.34,0,0,0-7.93-.14,46,46,0,0,0-7.41,1.2,58.09,58.09,0,0,0-6.75,2.15A61.54,61.54,0,0,0,155.93,79a78.55,78.55,0,0,0-12.78,8.22l.3.32a33,33,0,0,0,3.38,1.29c.8.31,1.75.63,2.85.95s2.23.73,3.58,1.08c5.27,1.51,12.47,3.37,21.7,5.08,4.58.85,9.4,1.52,14,2.11s9.08,1,13.14,1.34c2,.16,4,.28,5.73.37s3.36.16,4.79.2c2.87.08,5,0,6.1,0l1.26-.33a54.13,54.13,0,0,0,5.23-3.22c1.2-.82,2.53-1.81,3.94-3a58.15,58.15,0,0,0,4.34-4,53.66,53.66,0,0,0,8.71-11.45,52.44,52.44,0,0,0,6.05-16.7,62.4,62.4,0,0,0,.9-9.9c0-1.66-.05-3.34-.16-5s-.24-3.35-.5-5a83.56,83.56,0,0,0-4.84-18.56c-1.11-2.77-2.22-5.44-3.4-7.81s-2.38-4.52-3.47-6.42c-2.22-3.76-4.17-6.41-5.16-7.81L230.73,0a88.08,88.08,0,0,0-5.82,15.53,153.3,153.3,0,0,0-3.56,15.17c-.5,2.8-1,5.8-1.41,8.83s-.73,6.21-1,9.45c-.83,11.5-.61,22.23-.47,30.93S219,95.28,219.1,98.33Z" style="fill: #006837"/>
      </g>
    </g>
  </g>
</svg>
